<?xml version="1.0" standalone="no"?>
<!DOCTYPE svg PUBLIC "-//W3C//DTD SVG 20010904//EN"
 "http://www.w3.org/TR/2001/REC-SVG-20010904/DTD/svg10.dtd">
<svg version="1.0" xmlns="http://www.w3.org/2000/svg"
 width="600.000000pt" height="600.000000pt" viewBox="0 0 600.000000 600.000000"
 preserveAspectRatio="xMidYMid meet">
<g transform="translate(0.000000,600.000000) scale(0.100000,-0.100000)"
fill="#000000" stroke="none">
<path d="M2598 3638 c-314 -320 -344 -356 -302 -372 9 -3 66 -6 127 -6 l112 0
232 235 232 235 261 0 c175 0 269 4 283 11 12 7 57 48 100 93 124 129 147 120
-328 124 l-400 3 -317 -323z m1092 288 c0 -15 -150 -156 -172 -161 -15 -4
-131 -4 -258 -2 -128 3 -242 2 -254 -3 -13 -4 -124 -111 -249 -237 l-226 -228
-98 -6 c-98 -6 -126 -3 -121 11 9 23 605 620 622 623 28 6 756 8 756 3z"/>
<path d="M3160 3473 c-14 -9 -29 -23 -35 -29 -7 -9 -50 -14 -128 -16 l-118 -3
-110 -112 -109 -111 0 -154 c0 -106 4 -158 12 -166 8 -8 46 -12 105 -12 78 0
94 3 102 18 5 9 9 90 8 180 l0 163 31 31 c28 29 37 32 111 36 75 4 82 3 111
-21 42 -36 89 -43 135 -21 89 42 99 150 19 213 -33 26 -100 28 -134 4z m118
-33 c28 -17 32 -25 32 -64 0 -58 -7 -74 -41 -91 -40 -21 -69 -19 -112 11 -38
25 -49 27 -159 25 -49 -1 -62 -6 -92 -32 -43 -37 -45 -50 -49 -239 l-2 -145
-81 -3 -82 -3 5 153 4 153 72 76 c99 106 128 119 254 119 89 0 102 2 119 21
38 42 83 49 132 19z"/>
<path d="M4009 2736 c-30 -17 -59 -71 -59 -110 0 -22 -4 -26 -30 -26 -28 0
-30 -3 -30 -35 0 -32 2 -35 30 -35 l30 0 0 -160 0 -160 45 0 45 0 0 161 c0
143 2 160 16 155 9 -3 41 -6 73 -6 l57 0 0 -42 c0 -24 0 -78 2 -121 2 -76 3
-80 37 -114 34 -34 38 -35 95 -31 74 5 85 14 68 55 -11 24 -17 29 -33 22 -32
-12 -44 -10 -65 11 -17 17 -20 33 -20 126 l0 107 50 -5 50 -5 0 36 0 36 -51
-4 -51 -3 3 46 4 46 -37 0 c-21 0 -41 0 -45 0 -5 0 -6 -21 -4 -47 3 -40 1 -45
-14 -39 -9 3 -43 6 -76 6 -59 0 -59 0 -59 30 0 36 29 54 75 46 31 -6 34 -4 40
24 4 17 4 34 1 38 -14 14 -122 12 -147 -2z m81 -26 c-42 -10 -80 -52 -80 -89
0 -35 17 -51 52 -51 15 0 28 -4 28 -10 0 -5 -11 -10 -24 -10 -48 0 -54 -19
-55 -161 -1 -73 -4 -136 -7 -141 -16 -26 -24 17 -24 133 0 131 -8 169 -35 169
-22 0 -18 14 7 25 17 7 25 22 30 55 10 60 44 90 101 89 l42 -1 -35 -8z m150
-81 c0 -32 19 -59 42 -59 19 0 19 -1 -6 -21 -25 -20 -26 -23 -26 -132 0 -62 4
-117 8 -123 4 -6 23 -21 42 -33 28 -17 31 -21 14 -21 -12 0 -35 5 -52 11 -41
14 -52 50 -52 175 0 93 -2 104 -21 118 -12 8 -28 12 -37 9 -10 -4 -13 -2 -8 5
4 7 18 12 31 12 24 0 35 17 35 56 0 15 6 24 15 24 8 0 15 -9 15 -21z"/>
<path d="M1640 2475 c0 -135 1 -248 3 -251 1 -4 21 -8 45 -9 l42 -3 0 99 0 99
118 0 117 0 2 40 1 40 -119 0 -119 0 0 75 0 75 135 0 135 0 0 40 0 40 -180 0
-180 0 0 -245z m211 197 c-139 -3 -144 -7 -149 -106 -5 -104 1 -110 130 -117
l103 -6 -101 -1 c-127 -2 -132 -7 -136 -116 -2 -52 -7 -81 -15 -84 -10 -3 -13
45 -13 217 l0 220 53 3 c28 2 95 1 147 -2 l95 -5 -114 -3z"/>
<path d="M2076 2585 c-55 -19 -60 -28 -42 -64 16 -30 18 -31 44 -18 72 37 145
30 173 -16 10 -17 16 -34 13 -39 -3 -4 -35 -8 -72 -8 -127 0 -182 -34 -182
-112 0 -53 13 -74 60 -98 55 -28 118 -26 164 5 l36 24 0 -24 c0 -22 4 -25 40
-25 l40 0 0 143 c0 162 -11 197 -71 229 -41 22 -145 24 -203 3z m181 -25 c51
-18 63 -53 63 -189 0 -127 -7 -143 -43 -103 -13 15 -14 19 -1 36 18 26 18 70
-1 86 -14 12 -14 15 0 30 19 22 19 45 -2 80 -21 37 -48 50 -105 52 -25 1 -44
6 -42 10 7 11 96 10 131 -2z m-151 -9 c-3 -5 -16 -11 -28 -14 -22 -6 -22 -5
-4 8 22 17 40 20 32 6z m-15 -177 c-30 -38 -26 -68 12 -103 33 -32 26 -39 -18
-19 -53 24 -63 100 -18 134 32 24 46 17 24 -12z m169 -22 c0 -41 -39 -74 -88
-76 -48 -1 -72 17 -72 55 0 37 22 48 98 49 61 0 62 0 62 -28z"/>
<path d="M2410 2561 l0 -39 95 3 c52 1 95 0 95 -3 0 -5 -140 -181 -177 -222
-14 -15 -23 -38 -23 -57 l0 -33 165 0 165 0 0 41 0 40 -105 -3 c-58 -2 -105
-1 -105 1 0 3 47 61 176 220 12 14 25 41 28 59 l8 32 -161 0 -161 0 0 -39z
m278 -6 c2 -2 -39 -58 -92 -124 -53 -67 -96 -127 -96 -134 0 -22 23 -37 56
-37 18 0 35 -4 38 -8 2 -4 -31 -9 -74 -10 -44 0 -82 3 -85 8 -3 6 31 56 77
112 113 138 119 148 107 170 -8 15 -23 18 -94 18 -50 0 -85 4 -85 10 0 9 239
5 248 -5z"/>
<path d="M2845 2584 c-47 -24 -73 -53 -91 -100 -23 -59 -15 -141 17 -189 53
-78 184 -109 277 -64 54 26 60 40 32 72 l-22 25 -32 -19 c-37 -23 -106 -25
-145 -5 -22 12 -51 52 -51 71 0 3 67 5 148 5 l148 0 -6 53 c-7 69 -40 120 -94
146 -51 25 -138 28 -181 5z m171 -30 c41 -19 74 -70 74 -113 0 -24 -4 -31 -19
-31 -17 0 -19 5 -14 33 4 28 0 40 -27 70 -53 61 -123 62 -186 4 -40 -37 -48
-62 -28 -94 9 -14 10 -24 4 -28 -28 -18 3 -90 52 -118 33 -19 118 -23 149 -6
11 6 25 8 32 6 7 -3 -6 -12 -28 -22 -48 -21 -138 -16 -183 10 -42 25 -72 83
-72 140 0 75 33 126 100 157 28 13 112 8 146 -8z m-27 -38 c22 -12 51 -52 51
-71 0 -3 -47 -5 -105 -5 -113 0 -120 4 -89 48 29 42 92 54 143 28z"/>
<path d="M3230 2589 c-51 -21 -80 -60 -80 -105 0 -67 28 -91 129 -112 92 -19
119 -39 90 -68 -27 -26 -88 -28 -148 -5 -30 11 -56 20 -57 18 -13 -16 -32 -67
-26 -70 4 -2 31 -12 60 -22 106 -34 231 -4 259 63 29 70 -8 125 -96 142 -85
17 -119 29 -125 47 -20 50 83 67 174 29 11 -5 20 4 32 29 15 34 15 36 -6 47
-28 15 -174 21 -206 7z m177 -33 c13 -12 -3 -14 -53 -3 -58 12 -91 6 -122 -23
-33 -31 -28 -63 16 -98 l37 -31 -38 9 c-56 12 -68 27 -65 74 2 33 9 44 38 64
31 21 43 23 108 19 40 -2 75 -7 79 -11z m-11 -171 c33 -14 35 -17 32 -56 -3
-45 -27 -71 -78 -84 -22 -6 -21 -4 7 14 60 38 66 82 16 121 -31 24 -25 25 23
5z m-141 -136 c13 -12 -5 -11 -44 2 -17 6 -31 15 -31 19 0 10 59 -8 75 -21z"/>
<path d="M3595 2586 c-151 -66 -151 -289 0 -357 107 -49 248 7 280 110 12 39
7 129 -9 159 -33 64 -104 102 -188 102 -29 -1 -67 -7 -83 -14z m175 -34 c55
-27 80 -74 80 -147 0 -83 -35 -136 -104 -155 -126 -35 -225 27 -234 147 -3 48
0 64 20 93 47 71 162 101 238 62z"/>
<path d="M3599 2523 c-60 -51 -74 -121 -36 -187 58 -103 189 -105 239 -5 24
45 23 116 -1 153 -47 71 -142 89 -202 39z m162 -29 c47 -42 42 -144 -8 -184
-31 -24 -99 -27 -131 -4 -46 32 -66 109 -40 157 33 63 126 79 179 31z"/>
</g>
</svg>
