<?xml version="1.0" standalone="no"?>
<!DOCTYPE svg PUBLIC "-//W3C//DTD SVG 20010904//EN"
 "http://www.w3.org/TR/2001/REC-SVG-20010904/DTD/svg10.dtd">
<svg version="1.0" xmlns="http://www.w3.org/2000/svg"
 width="600.000000pt" height="533.000000pt" viewBox="0 0 600.000000 533.000000"
 preserveAspectRatio="xMidYMid meet">
<g transform="translate(0.000000,533.000000) scale(0.100000,-0.100000)"
fill="#000000" stroke="none">
<path d="M12 5305 c0 -16 2 -22 5 -12 2 9 2 23 0 30 -3 6 -5 -1 -5 -18z"/>
<path d="M2847 3511 c-40 -37 -137 -135 -217 -216 -80 -81 -176 -177 -213
-213 -85 -83 -104 -115 -86 -148 16 -31 27 -34 145 -36 124 -2 106 -14 355
241 l186 190 214 -2 c118 -2 226 0 242 3 37 7 197 166 197 196 0 11 -8 28 -18
37 -17 15 -57 17 -376 17 l-357 0 -72 -69z m797 22 c5 -11 -17 -40 -77 -100
l-83 -83 -240 0 -240 0 -212 -212 -211 -212 -107 2 c-60 2 -111 5 -116 8 -4 3
-8 13 -8 22 1 9 128 146 283 305 l282 287 362 0 c327 0 361 -2 367 -17z"/>
<path d="M3138 3148 c-18 -11 -36 -26 -40 -32 -5 -7 -35 -10 -80 -9 -40 1 -90
-2 -110 -8 -41 -11 -137 -94 -200 -172 l-38 -49 0 -144 c0 -140 1 -146 25
-169 21 -21 33 -25 89 -25 36 0 76 4 90 10 42 16 50 44 51 198 1 131 3 144 22
164 33 32 127 28 179 -7 30 -21 47 -26 76 -22 131 17 181 157 87 241 -21 20
-49 36 -62 37 -12 0 -29 2 -39 4 -9 2 -31 -6 -50 -17z m107 -22 c39 -17 65
-60 65 -110 0 -86 -111 -137 -177 -82 -27 23 -40 26 -101 26 -61 0 -75 -3
-101 -26 l-31 -26 0 -158 c0 -123 -3 -160 -14 -169 -9 -8 -45 -11 -98 -9 l-83
3 -3 153 -3 154 83 85 c46 47 95 91 110 99 17 9 59 14 117 14 54 0 93 4 97 11
10 17 67 49 87 49 10 0 33 -6 52 -14z"/>
<path d="M3895 2467 c-39 -28 -53 -46 -60 -80 -4 -16 -17 -33 -31 -39 -13 -6
-26 -19 -29 -29 -5 -16 -11 -15 -63 12 -70 35 -115 36 -184 6 -57 -26 -118
-96 -118 -136 0 -12 -1 -21 -2 -21 -2 0 -25 7 -53 15 -27 9 -63 18 -80 21 -40
7 -42 12 -11 20 17 4 43 0 68 -9 40 -16 40 -16 69 13 49 49 33 87 -46 109 -84
23 -162 6 -214 -46 l-34 -34 -31 30 c-42 40 -110 64 -161 55 -44 -7 -110 -37
-121 -55 -4 -7 -12 1 -20 20 -15 35 -4 33 -184 31 -71 -1 -130 -6 -137 -12 -7
-6 -13 -27 -13 -48 0 -45 13 -53 85 -55 36 -1 49 -5 47 -14 -2 -8 -31 -48 -65
-90 l-62 -76 -5 95 c-6 112 -24 152 -85 184 -77 40 -226 20 -256 -35 -7 -14
-5 -27 6 -49 21 -40 33 -44 86 -29 24 7 50 12 57 12 34 -1 42 -4 42 -13 0 -5
-22 -10 -49 -10 -65 0 -117 -23 -141 -63 -39 -63 -19 -138 47 -177 32 -19 47
-21 98 -16 33 4 85 6 117 6 31 -1 59 3 62 9 4 6 16 4 34 -5 19 -10 63 -14 152
-14 134 0 170 11 170 50 0 17 5 16 46 -13 42 -29 52 -32 122 -32 62 0 85 4
115 22 37 22 37 22 70 3 40 -23 121 -35 182 -25 33 4 58 17 85 41 l39 35 45
-35 c26 -19 62 -38 82 -42 45 -8 116 1 153 21 43 22 94 92 102 139 5 32 7 22
8 -45 1 -51 6 -90 13 -97 17 -17 93 -15 108 3 8 10 13 55 14 133 l1 117 38 3
37 3 0 -86 c0 -92 10 -123 53 -164 35 -32 102 -39 151 -16 38 18 45 39 25 78
-16 30 -29 37 -60 30 -25 -5 -28 -2 -33 28 -4 19 -5 54 -4 79 3 42 5 45 37 51
39 8 51 23 51 65 0 37 -21 58 -58 59 -17 0 -26 6 -24 14 6 27 -27 61 -59 61
-21 0 -40 9 -59 30 -24 26 -35 30 -82 30 -38 -1 -61 -7 -83 -23z m113 -7 c35
0 43 -14 31 -49 -8 -23 -15 -29 -22 -22 -18 18 -55 12 -71 -11 -29 -41 -21
-48 54 -48 l70 0 0 38 0 38 40 -4 c39 -4 40 -5 40 -41 l0 -36 45 3 45 4 0 -37
0 -37 -47 3 c-27 2 -47 0 -45 -4 1 -4 2 -50 2 -102 0 -91 1 -96 24 -106 16 -8
30 -8 42 -1 15 8 20 5 32 -16 12 -23 11 -28 -4 -39 -24 -18 -89 -16 -125 2
-41 22 -49 50 -49 166 l0 99 -67 0 -68 0 3 -140 3 -140 -40 0 -41 0 0 140 0
140 -30 0 c-28 0 -30 3 -30 35 0 33 1 34 30 29 29 -6 30 -6 30 33 0 26 8 50
21 67 20 26 73 48 97 40 8 -2 21 -4 30 -4z m2 -100 c0 -5 -9 -10 -20 -10 -11
0 -20 5 -20 10 0 6 9 10 20 10 11 0 20 -4 20 -10z m-1653 -56 c46 -34 53 -59
53 -196 l0 -128 -35 0 c-29 0 -35 4 -35 22 0 21 0 21 -21 2 -17 -15 -36 -19
-91 -19 -64 0 -72 2 -94 28 -17 20 -24 40 -24 72 0 36 5 47 31 69 27 23 39 26
110 26 77 0 79 1 79 24 0 51 -90 74 -154 41 -16 -9 -30 -14 -31 -13 0 2 -8 15
-17 29 -15 24 -15 26 5 39 59 36 178 38 224 4z m393 -2 c0 -21 -24 -56 -95
-140 l-95 -112 98 0 98 0 0 -35 0 -35 -148 0 -148 0 0 26 c0 17 29 61 90 137
49 62 90 114 90 117 0 3 -40 4 -89 2 l-89 -3 3 33 c2 18 4 34 4 36 1 1 64 2
141 2 l140 0 0 -28z m275 5 c48 -27 85 -88 85 -139 l0 -38 -135 0 -135 0 12
-26 c7 -14 24 -32 39 -40 37 -19 109 -18 137 2 21 15 24 14 41 -8 18 -21 18
-25 4 -40 -39 -44 -178 -51 -231 -11 -51 37 -72 80 -72 145 0 63 14 100 52
135 51 48 138 57 203 20z m341 12 c24 -6 44 -13 44 -16 0 -2 -7 -17 -15 -32
l-14 -29 -43 15 c-61 21 -128 4 -128 -33 0 -18 28 -30 104 -45 72 -13 106 -43
106 -91 0 -67 -57 -108 -150 -108 -54 0 -137 17 -145 30 -3 4 2 22 11 39 11
22 19 29 28 22 43 -36 167 -34 174 3 6 27 -6 33 -88 50 -110 23 -146 74 -103
146 32 54 119 74 219 49z m333 -9 c77 -39 111 -115 91 -200 -19 -80 -86 -130
-175 -130 -57 0 -93 14 -133 53 -83 80 -55 235 52 282 46 20 121 18 165 -5z
m-958 -130 c-4 -25 -4 -58 0 -73 4 -15 4 -29 0 -31 -3 -2 -31 -1 -60 2 l-54 7
58 73 c32 40 59 71 60 70 2 -2 0 -23 -4 -48z m1089 18 c0 -36 -4 -35 -14 5 -4
16 -2 27 4 27 5 0 10 -14 10 -32z m-655 -82 c19 -8 55 -18 80 -21 25 -4 45
-11 45 -16 0 -14 -52 -10 -104 7 -46 16 -48 16 -70 -5 l-23 -21 -18 20 c-18
19 -18 20 2 20 11 0 26 7 33 15 15 18 13 18 55 1z m-170 -25 c-19 -19 -60 -22
-80 -7 -19 14 -16 15 35 16 33 0 50 -4 45 -9z"/>
<path d="M2196 2108 c-23 -32 -1 -62 48 -66 51 -4 86 20 86 58 0 30 0 30 -59
30 -50 0 -62 -4 -75 -22z m104 -18 c0 -15 -46 -34 -64 -27 -9 4 -16 13 -16 22
0 11 11 15 40 15 22 0 40 -5 40 -10z"/>
<path d="M2895 2256 c-25 -11 -55 -50 -55 -71 0 -3 43 -5 95 -5 105 0 114 7
73 54 -28 32 -73 41 -113 22z m81 -31 c17 -13 14 -14 -41 -14 -55 0 -58 1 -41
14 11 8 29 15 41 15 12 0 30 -7 41 -15z"/>
<path d="M3547 2234 c-29 -28 -36 -61 -25 -114 21 -101 174 -91 193 13 19 99
-99 170 -168 101z m133 -39 c14 -36 3 -88 -22 -108 -26 -20 -73 -16 -97 7 -18
18 -18 91 0 112 32 39 103 32 119 -11z"/>
<path d="M1756 2441 c-15 -17 -17 -44 -16 -237 0 -170 4 -222 14 -232 16 -17
94 -21 106 -7 5 6 10 39 11 75 2 36 7 70 12 77 6 8 38 12 94 12 51 0 90 4 99
12 18 15 18 83 0 98 -8 6 -53 12 -105 13 l-91 1 0 42 0 43 104 -1 c118 -1 136
7 136 58 0 59 -18 65 -192 65 -140 0 -157 -2 -172 -19z m334 -47 l0 -36 -120
4 -120 3 0 -72 0 -72 109 6 108 6 -2 -38 -3 -39 -106 3 -106 3 0 -92 0 -91
-40 3 -41 3 -2 223 -2 222 163 0 162 0 0 -36z"/>
<path d="M12 110 c0 -14 2 -19 5 -12 2 6 2 18 0 25 -3 6 -5 1 -5 -13z"/>
</g>
</svg>
